<?xml version="1.0" encoding="iso-8859-1"?>
<!-- Uploaded to: SVG Repo, www.svgrepo.com, Generator: SVG Repo Mixer Tools -->
<svg fill="#000000" version="1.1" id="Layer_1" xmlns="http://www.w3.org/2000/svg" xmlns:xlink="http://www.w3.org/1999/xlink" 
	 viewBox="0 0 512 512" xml:space="preserve">
<g>
	<g>
		<path d="M511.665,340.637c-1.622-19.498-9.247-38.154-21.899-53.222c-14.356-17.084-34.344-28.615-56.282-32.467l-125.409-22.037
			c-54.089-9.505-93.348-56.264-93.348-111.18c0-10.082-8.203-18.286-18.286-18.286H0v237.192v7.837v60.082h512v-67.918H511.665z
			 M399.673,264.92l31.099,5.465c18.315,3.216,35.005,12.845,46.992,27.111c10.281,12.245,16.58,27.33,18.157,43.141h-96.249V264.92
			z M196.441,119.118c1.44,0,2.612,1.172,2.612,2.612c0,39.442,17.787,75.184,46.374,98.925
			c-47.229-11.976-81.4-52.879-84.739-101.537H196.441z M15.673,119.118h129.287c0.428,7.125,1.433,14.109,2.98,20.898H15.673
			V119.118z M15.673,155.69h136.909c15.411,41.985,52.159,74.074,98.446,82.209l39.587,6.957c4.794,1.434,9.713,2.607,14.749,3.492
			L384,262.166v78.471H97.053c-11.498-38.415-42.533-68.144-81.38-77.981V155.69z M15.673,278.902
			c30.206,8.973,54.435,32.024,64.911,61.735H15.673V278.902z M126.955,392.882H15.673V356.31h111.282V392.882z M496.327,392.882
			H142.629v-10.449h274.286v-15.674H142.629V356.31h353.698V392.882z"/>
	</g>
</g>
<g>
	<g>
		<path d="M74.188,181.812c-20.454,0-37.094,16.64-37.094,37.094S53.734,256,74.188,256c20.454,0,37.094-16.64,37.094-37.094
			S94.642,181.812,74.188,181.812z M74.188,240.327c-11.812,0-21.42-9.609-21.42-21.42s9.609-21.42,21.42-21.42
			s21.42,9.609,21.42,21.42S85.999,240.327,74.188,240.327z"/>
	</g>
</g>
<g>
	<g>
		<rect x="432.588" y="366.759" width="15.673" height="15.674"/>
	</g>
</g>
<g>
	<g>
		<circle cx="138.449" cy="179.963" r="7.837"/>
	</g>
</g>
<g>
	<g>
		<circle cx="158.96" cy="215.542" r="7.837"/>
	</g>
</g>
<g>
	<g>
		<circle cx="190.192" cy="242.197" r="7.837"/>
	</g>
</g>
<g>
	<g>
		<circle cx="229.689" cy="257.045" r="7.837"/>
	</g>
</g>
</svg>